<?xml version="1.0" encoding="utf-8"?>
<!-- Generator: Adobe Illustrator 21.0.0, SVG Export Plug-In . SVG Version: 6.00 Build 0)  -->
<svg version="1.1" id="Layer_10" xmlns="http://www.w3.org/2000/svg" xmlns:xlink="http://www.w3.org/1999/xlink" x="0px" y="0px"
	 viewBox="0 0 192 192" style="enable-background:new 0 0 192 192;" xml:space="preserve">
<g>
	<g>
		<path d="M82,160.7l-4.5,0h-4l-0.4-8.3c-0.7-13.6-8.6-37.4-20.1-52.1c-7.4-9.5-11.8-19.8-11.8-27.7c0-22.7,18.3-41.1,40.8-41.1
			c22.5,0,40.8,18.5,40.8,41.1c0,7.9-4.4,18.3-11.8,27.7c-11.5,14.7-19.4,38.5-20.1,52.1l-0.4,8.3h-4L82,160.7z M82,48.8
			c-12.9,0-23.3,10.6-23.3,23.7c0,1.8,1.5,8.5,8.1,17c6.4,8.2,11.4,17.9,15.2,27.3c3.8-9.4,8.8-19.1,15.2-27.3
			c6.6-8.5,8.1-15.1,8.1-17C105.3,59.4,94.9,48.8,82,48.8z"/>
	</g>
</g>
<circle cx="81.8" cy="71.3" r="13.6"/>
<polygon points="137.6,148 101.4,148 96,159.7 132.2,159.7 "/>
<polygon points="184.1,148 147.8,148 142.5,159.7 178.7,159.7 "/>
</svg>
